{"title":"Burn After Reading.XviD.Swe_sub","uid":5330006,"size":737243136,"categoryP":"video","categoryS":"movies","magnet":"?xt=urn:btih:4b973092c899c8a43e540eabeffae68fa80d5ed9&amp;dn=Burn+After+Reading.XviD.Swe_sub&amp;tr=udp%3A%2F%2Ftracker.openbittorrent.com%3A80&amp;tr=udp%3A%2F%2Fopen.demonii.com%3A1337&amp;tr=udp%3A%2F%2Ftracker.coppersurfer.tk%3A6969&amp;tr=udp%3A%2F%2Fexodus.desync.com%3A6969","seeders":1,"leechers":0,"uploader":"Zen_Bud","files":-1,"time":1265139062,"description":"General\nComplete name                    : Burn After Reading.XviD.Swe_sub\nFormat                           : AVI\nFormat/Info                      : Audio Video Interleave\nFile size                        : 703 MiB\nDuration                         : 1h 31mn\nOverall bit rate                 : 1 069 Kbps\n\n\nVideo\nID                               : 0\nFormat                           : MPEG-4 Visual\nCodec ID/Hint                    : XviD\nDuration                         : 1h 31mn\nBit rate                         : 944 Kbps\nWidth                            : 608 pixels\nHeight                           : 336 pixels\nDisplay aspect ratio             : 16:9\nFrame rate                       : 25.000 fps\nResolution                       : 8 bits\nColorimetry                      : 4:2:0\nScan type                        : Progressive\nBits/(Pixel*Frame)               : 0.185\nStream size                      : 621 MiB (88%)\nWriting library                  : XviD 1.3.0.dev55\n\nAudio\nID                               : 1\nFormat                           : MPEG Audio\nFormat version                   : Version 1\nFormat profile                   : Layer 3\nMode                             : Joint stereo / MS Stereo\nCodec ID                         : 55\nCodec ID/Hint                    : MP3\nDuration                         : 1h 31mn\nBit rate mode                    : Variable\nBit rate                         : 112 Kbps\nNominal bit rate                 : 128 Kbps\nChannel(s)                       : 2 channels\nSampling rate                    : 48.0 KHz\nStream size                      : 73.6 MiB (10%)\nAlignment                        : Aligned on interleaves\nInterleave, duration             : 24 ms (0.60 video frame)\nInterleave, preload duration     : 164 ms\nWriting library                  : LAME3.98r\nLanguage                         : English\n\n","torrent":{"xt":"urn:btih:4b973092c899c8a43e540eabeffae68fa80d5ed9","amp;dn":"Burn+After+Reading.XviD.Swe_sub","amp;tr":["udp%3A%2F%2Ftracker.openbittorrent.com%3A80","udp%3A%2F%2Fopen.demonii.com%3A1337","udp%3A%2F%2Ftracker.coppersurfer.tk%3A6969","udp%3A%2F%2Fexodus.desync.com%3A6969"],"infoHash":"4b973092c899c8a43e540eabeffae68fa80d5ed9","infoHashBuffer":{"type":"Buffer","data":[75,151,48,146,200,153,200,164,62,84,14,171,239,250,230,143,168,13,94,217]},"announce":[],"urlList":[]}}